<mxfile host="app.diagrams.net" modified="2022-05-25T01:38:38.608Z" agent="5.0 (Windows NT 10.0; Win64; x64) AppleWebKit/537.36 (KHTML, like Gecko) Chrome/101.0.4951.67 Safari/537.36" etag="HaaGSdTavGC0w3TIkE0w" version="18.1.2" type="github" pages="3">
  <diagram id="hPQqigWGEy2a-Y2w4Ybq" name="业务架构图">
    <mxGraphModel dx="1038" dy="636" grid="1" gridSize="10" guides="1" tooltips="1" connect="1" arrows="1" fold="1" page="1" pageScale="1" pageWidth="827" pageHeight="1169" math="0" shadow="0">
      <root>
        <mxCell id="0" />
        <mxCell id="1" parent="0" />
      </root>
    </mxGraphModel>
  </diagram>
  <diagram id="b0tYvKutyRTe1-X-ptyu" name="框架图">
    <mxGraphModel dx="1038" dy="636" grid="1" gridSize="10" guides="1" tooltips="1" connect="1" arrows="1" fold="1" page="1" pageScale="1" pageWidth="827" pageHeight="1169" math="0" shadow="0">
      <root>
        <mxCell id="0" />
        <mxCell id="1" parent="0" />
        <mxCell id="swpl27hVYAeV6DKNPg2S-30" value="" style="group" vertex="1" connectable="0" parent="1">
          <mxGeometry x="50" y="50" width="150" height="90" as="geometry" />
        </mxCell>
        <mxCell id="swpl27hVYAeV6DKNPg2S-13" value="文件夹管理" style="rounded=1;whiteSpace=wrap;html=1;fillColor=#ffe6cc;strokeColor=#d79b00;verticalAlign=top;" vertex="1" parent="swpl27hVYAeV6DKNPg2S-30">
          <mxGeometry width="150" height="90" as="geometry" />
        </mxCell>
        <mxCell id="swpl27hVYAeV6DKNPg2S-26" value="重命名" style="rounded=0;whiteSpace=wrap;html=1;" vertex="1" parent="swpl27hVYAeV6DKNPg2S-30">
          <mxGeometry x="12.396086956521735" y="60.951708683473385" width="54.78260869565218" height="18.57142857142857" as="geometry" />
        </mxCell>
        <mxCell id="swpl27hVYAeV6DKNPg2S-27" value="移动" style="rounded=0;whiteSpace=wrap;html=1;" vertex="1" parent="swpl27hVYAeV6DKNPg2S-30">
          <mxGeometry x="82.8308695652174" y="60.951708683473385" width="54.78260869565218" height="18.57142857142857" as="geometry" />
        </mxCell>
        <mxCell id="swpl27hVYAeV6DKNPg2S-28" value="新建" style="rounded=0;whiteSpace=wrap;html=1;" vertex="1" parent="swpl27hVYAeV6DKNPg2S-30">
          <mxGeometry x="12.396086956521735" y="29.99932773109242" width="54.78260869565218" height="18.57142857142857" as="geometry" />
        </mxCell>
        <mxCell id="swpl27hVYAeV6DKNPg2S-29" value="删除" style="rounded=0;whiteSpace=wrap;html=1;" vertex="1" parent="swpl27hVYAeV6DKNPg2S-30">
          <mxGeometry x="82.8308695652174" y="29.99932773109242" width="54.78260869565218" height="18.57142857142857" as="geometry" />
        </mxCell>
        <mxCell id="swpl27hVYAeV6DKNPg2S-59" value="" style="group" vertex="1" connectable="0" parent="1">
          <mxGeometry x="264" y="40" width="150" height="160" as="geometry" />
        </mxCell>
        <mxCell id="swpl27hVYAeV6DKNPg2S-42" value="文件管理" style="rounded=1;whiteSpace=wrap;html=1;fillColor=#B9E0A5;verticalAlign=top;" vertex="1" parent="swpl27hVYAeV6DKNPg2S-59">
          <mxGeometry width="150" height="160" as="geometry" />
        </mxCell>
        <mxCell id="swpl27hVYAeV6DKNPg2S-47" value="删除" style="rounded=0;whiteSpace=wrap;html=1;" vertex="1" parent="swpl27hVYAeV6DKNPg2S-59">
          <mxGeometry x="82.83086956521743" y="66.66170868347336" width="54.78260869565218" height="18.57142857142857" as="geometry" />
        </mxCell>
        <mxCell id="swpl27hVYAeV6DKNPg2S-48" value="浏览" style="rounded=0;whiteSpace=wrap;html=1;" vertex="1" parent="swpl27hVYAeV6DKNPg2S-59">
          <mxGeometry x="82.83086956521743" y="35.7093277310924" width="54.78260869565218" height="18.57142857142857" as="geometry" />
        </mxCell>
        <mxCell id="swpl27hVYAeV6DKNPg2S-49" value="重命名" style="rounded=0;whiteSpace=wrap;html=1;" vertex="1" parent="swpl27hVYAeV6DKNPg2S-59">
          <mxGeometry x="12.396086956521742" y="95.1217086834734" width="54.78260869565218" height="18.57142857142857" as="geometry" />
        </mxCell>
        <mxCell id="swpl27hVYAeV6DKNPg2S-50" value="移动" style="rounded=0;whiteSpace=wrap;html=1;" vertex="1" parent="swpl27hVYAeV6DKNPg2S-59">
          <mxGeometry x="82.83086956521743" y="95.1217086834734" width="54.78260869565218" height="18.57142857142857" as="geometry" />
        </mxCell>
        <mxCell id="swpl27hVYAeV6DKNPg2S-51" value="编辑" style="rounded=0;whiteSpace=wrap;html=1;" vertex="1" parent="swpl27hVYAeV6DKNPg2S-59">
          <mxGeometry x="12.396086956521742" y="66.66170868347336" width="54.78260869565218" height="18.57142857142857" as="geometry" />
        </mxCell>
        <mxCell id="swpl27hVYAeV6DKNPg2S-54" value="导出" style="rounded=0;whiteSpace=wrap;html=1;" vertex="1" parent="swpl27hVYAeV6DKNPg2S-59">
          <mxGeometry x="12.396086956521742" y="126.4317086834734" width="54.78260869565218" height="18.57142857142857" as="geometry" />
        </mxCell>
        <mxCell id="swpl27hVYAeV6DKNPg2S-55" value="..." style="rounded=0;whiteSpace=wrap;html=1;" vertex="1" parent="swpl27hVYAeV6DKNPg2S-59">
          <mxGeometry x="82.83086956521743" y="126.4317086834734" width="54.78260869565218" height="18.57142857142857" as="geometry" />
        </mxCell>
        <mxCell id="swpl27hVYAeV6DKNPg2S-56" value="导入" style="rounded=0;whiteSpace=wrap;html=1;" vertex="1" parent="swpl27hVYAeV6DKNPg2S-59">
          <mxGeometry x="12.396086956521742" y="35.7093277310924" width="54.78260869565218" height="18.57142857142857" as="geometry" />
        </mxCell>
        <mxCell id="swpl27hVYAeV6DKNPg2S-75" value="" style="group" vertex="1" connectable="0" parent="1">
          <mxGeometry x="230" y="250" width="200" height="140" as="geometry" />
        </mxCell>
        <mxCell id="swpl27hVYAeV6DKNPg2S-60" value="发布" style="rounded=1;whiteSpace=wrap;html=1;fillColor=#B9E0A5;verticalAlign=top;" vertex="1" parent="swpl27hVYAeV6DKNPg2S-75">
          <mxGeometry width="200" height="140" as="geometry" />
        </mxCell>
        <mxCell id="swpl27hVYAeV6DKNPg2S-66" value="WMS服务" style="rounded=0;html=1;imageHeight=24;imageWidth=28;" vertex="1" parent="swpl27hVYAeV6DKNPg2S-75">
          <mxGeometry x="12.399999999999977" y="41.22" width="82.6" height="18.57" as="geometry" />
        </mxCell>
        <mxCell id="swpl27hVYAeV6DKNPg2S-67" value="Terrain服务" style="rounded=0;html=1;imageHeight=24;imageWidth=28;" vertex="1" parent="swpl27hVYAeV6DKNPg2S-75">
          <mxGeometry x="12.399999999999977" y="70.92999999999999" width="82.6" height="18.57" as="geometry" />
        </mxCell>
        <mxCell id="swpl27hVYAeV6DKNPg2S-69" value="倾斜摄影服务" style="rounded=0;html=1;imageHeight=24;imageWidth=28;" vertex="1" parent="swpl27hVYAeV6DKNPg2S-75">
          <mxGeometry x="105" y="70.92" width="82.6" height="18.57" as="geometry" />
        </mxCell>
        <mxCell id="swpl27hVYAeV6DKNPg2S-70" value="模型服务" style="rounded=0;html=1;imageHeight=24;imageWidth=28;" vertex="1" parent="swpl27hVYAeV6DKNPg2S-75">
          <mxGeometry x="12.399999999999977" y="100.21000000000001" width="82.6" height="18.57" as="geometry" />
        </mxCell>
        <mxCell id="swpl27hVYAeV6DKNPg2S-71" value="BIM服务" style="rounded=0;html=1;imageHeight=24;imageWidth=28;" vertex="1" parent="swpl27hVYAeV6DKNPg2S-75">
          <mxGeometry x="105" y="100.21000000000001" width="82.6" height="18.57" as="geometry" />
        </mxCell>
        <mxCell id="swpl27hVYAeV6DKNPg2S-72" value="WMTS服务" style="rounded=0;html=1;imageHeight=24;imageWidth=28;" vertex="1" parent="swpl27hVYAeV6DKNPg2S-75">
          <mxGeometry x="105" y="41.219999999999985" width="82.6" height="18.57" as="geometry" />
        </mxCell>
        <mxCell id="swpl27hVYAeV6DKNPg2S-78" value="" style="group" vertex="1" connectable="0" parent="1">
          <mxGeometry x="50" y="290" width="140" height="60" as="geometry" />
        </mxCell>
        <mxCell id="swpl27hVYAeV6DKNPg2S-73" value="存储" style="rounded=1;whiteSpace=wrap;html=1;fillColor=#B9E0A5;verticalAlign=top;" vertex="1" parent="swpl27hVYAeV6DKNPg2S-78">
          <mxGeometry width="140" height="60" as="geometry" />
        </mxCell>
        <mxCell id="swpl27hVYAeV6DKNPg2S-76" value="pg数据库" style="rounded=0;whiteSpace=wrap;html=1;" vertex="1" parent="swpl27hVYAeV6DKNPg2S-78">
          <mxGeometry x="7.396086956521742" y="29.99932773109242" width="54.78260869565218" height="18.57142857142857" as="geometry" />
        </mxCell>
        <mxCell id="swpl27hVYAeV6DKNPg2S-77" value="文件系统" style="rounded=0;whiteSpace=wrap;html=1;" vertex="1" parent="swpl27hVYAeV6DKNPg2S-78">
          <mxGeometry x="77.8308695652174" y="29.99932773109242" width="54.78260869565218" height="18.57142857142857" as="geometry" />
        </mxCell>
      </root>
    </mxGraphModel>
  </diagram>
  <diagram id="JKubRxIYWMZUg73s_XTH" name="分解图">
    <mxGraphModel dx="1038" dy="636" grid="1" gridSize="10" guides="1" tooltips="1" connect="1" arrows="1" fold="1" page="1" pageScale="1" pageWidth="827" pageHeight="1169" math="0" shadow="0">
      <root>
        <mxCell id="0" />
        <mxCell id="1" parent="0" />
        <mxCell id="npnfbdDp0Eg8aVGrXiHn-3" style="edgeStyle=orthogonalEdgeStyle;rounded=0;orthogonalLoop=1;jettySize=auto;html=1;entryX=0.44;entryY=-0.023;entryDx=0;entryDy=0;entryPerimeter=0;endArrow=none;endFill=0;" edge="1" parent="1" source="npnfbdDp0Eg8aVGrXiHn-1" target="npnfbdDp0Eg8aVGrXiHn-2">
          <mxGeometry relative="1" as="geometry">
            <Array as="points">
              <mxPoint x="105" y="150" />
            </Array>
          </mxGeometry>
        </mxCell>
        <mxCell id="A3WIPdJn9Os3xuO-kkev-9" style="edgeStyle=orthogonalEdgeStyle;rounded=0;orthogonalLoop=1;jettySize=auto;html=1;endArrow=none;endFill=0;" edge="1" parent="1" source="npnfbdDp0Eg8aVGrXiHn-1" target="A3WIPdJn9Os3xuO-kkev-5">
          <mxGeometry relative="1" as="geometry" />
        </mxCell>
        <mxCell id="npnfbdDp0Eg8aVGrXiHn-1" value="全部文件" style="rounded=0;whiteSpace=wrap;html=1;" vertex="1" parent="1">
          <mxGeometry x="200" y="100" width="120" height="60" as="geometry" />
        </mxCell>
        <mxCell id="npnfbdDp0Eg8aVGrXiHn-2" value="栅格数据" style="rounded=0;whiteSpace=wrap;html=1;" vertex="1" parent="1">
          <mxGeometry x="70" y="220" width="80" height="30" as="geometry" />
        </mxCell>
        <mxCell id="A3WIPdJn9Os3xuO-kkev-1" value="矢量数据" style="rounded=0;whiteSpace=wrap;html=1;" vertex="1" parent="1">
          <mxGeometry x="10" y="220" width="80" height="30" as="geometry" />
        </mxCell>
        <mxCell id="A3WIPdJn9Os3xuO-kkev-2" value="倾斜数据" style="rounded=0;whiteSpace=wrap;html=1;" vertex="1" parent="1">
          <mxGeometry x="180" y="220" width="80" height="30" as="geometry" />
        </mxCell>
        <mxCell id="A3WIPdJn9Os3xuO-kkev-8" style="edgeStyle=orthogonalEdgeStyle;rounded=0;orthogonalLoop=1;jettySize=auto;html=1;exitX=0.5;exitY=0;exitDx=0;exitDy=0;endArrow=none;endFill=0;entryX=0.75;entryY=1;entryDx=0;entryDy=0;" edge="1" parent="1" source="A3WIPdJn9Os3xuO-kkev-3" target="npnfbdDp0Eg8aVGrXiHn-1">
          <mxGeometry relative="1" as="geometry">
            <mxPoint x="420" y="250" as="targetPoint" />
            <Array as="points">
              <mxPoint x="320" y="200" />
              <mxPoint x="300" y="200" />
              <mxPoint x="300" y="180" />
              <mxPoint x="290" y="180" />
            </Array>
          </mxGeometry>
        </mxCell>
        <mxCell id="A3WIPdJn9Os3xuO-kkev-3" value="模型数据" style="rounded=0;whiteSpace=wrap;html=1;" vertex="1" parent="1">
          <mxGeometry x="280" y="220" width="80" height="30" as="geometry" />
        </mxCell>
        <mxCell id="A3WIPdJn9Os3xuO-kkev-4" value="文件夹" style="rounded=0;whiteSpace=wrap;html=1;" vertex="1" parent="1">
          <mxGeometry x="610" y="260" width="120" height="60" as="geometry" />
        </mxCell>
        <mxCell id="A3WIPdJn9Os3xuO-kkev-5" value="BIM数据" style="rounded=0;whiteSpace=wrap;html=1;" vertex="1" parent="1">
          <mxGeometry x="374" y="220" width="80" height="30" as="geometry" />
        </mxCell>
        <mxCell id="A3WIPdJn9Os3xuO-kkev-6" style="edgeStyle=orthogonalEdgeStyle;rounded=0;orthogonalLoop=1;jettySize=auto;html=1;endArrow=none;endFill=0;exitX=0;exitY=0.25;exitDx=0;exitDy=0;" edge="1" parent="1" source="npnfbdDp0Eg8aVGrXiHn-1" target="A3WIPdJn9Os3xuO-kkev-1">
          <mxGeometry relative="1" as="geometry">
            <mxPoint x="190" y="120" as="sourcePoint" />
            <mxPoint x="172.79999999999995" y="268.62" as="targetPoint" />
            <Array as="points">
              <mxPoint x="200" y="120" />
              <mxPoint x="40" y="120" />
              <mxPoint x="40" y="190" />
              <mxPoint x="50" y="190" />
            </Array>
          </mxGeometry>
        </mxCell>
        <mxCell id="A3WIPdJn9Os3xuO-kkev-7" style="edgeStyle=orthogonalEdgeStyle;rounded=0;orthogonalLoop=1;jettySize=auto;html=1;endArrow=none;endFill=0;" edge="1" parent="1" target="A3WIPdJn9Os3xuO-kkev-2">
          <mxGeometry relative="1" as="geometry">
            <mxPoint x="290" y="160" as="sourcePoint" />
            <mxPoint x="340" y="240" as="targetPoint" />
            <Array as="points">
              <mxPoint x="240" y="160" />
              <mxPoint x="240" y="190" />
              <mxPoint x="210" y="190" />
            </Array>
          </mxGeometry>
        </mxCell>
        <mxCell id="A3WIPdJn9Os3xuO-kkev-13" style="edgeStyle=orthogonalEdgeStyle;rounded=0;orthogonalLoop=1;jettySize=auto;html=1;entryX=1;entryY=0.25;entryDx=0;entryDy=0;endArrow=none;endFill=0;" edge="1" parent="1" source="A3WIPdJn9Os3xuO-kkev-10" target="npnfbdDp0Eg8aVGrXiHn-1">
          <mxGeometry relative="1" as="geometry">
            <Array as="points">
              <mxPoint x="500" y="115" />
            </Array>
          </mxGeometry>
        </mxCell>
        <mxCell id="A3WIPdJn9Os3xuO-kkev-10" value="未知数据" style="rounded=0;whiteSpace=wrap;html=1;" vertex="1" parent="1">
          <mxGeometry x="460" y="220" width="80" height="30" as="geometry" />
        </mxCell>
      </root>
    </mxGraphModel>
  </diagram>
</mxfile>
